<?xml version="1.0" encoding="utf-8"?>
<!-- Generator: Adobe Illustrator 16.0.4, SVG Export Plug-In . SVG Version: 6.00 Build 0)  -->
<!DOCTYPE svg PUBLIC "-//W3C//DTD SVG 1.1//EN" "http://www.w3.org/Graphics/SVG/1.1/DTD/svg11.dtd">
<svg version="1.1" id="Layer_7" xmlns="http://www.w3.org/2000/svg" xmlns:xlink="http://www.w3.org/1999/xlink" x="0px" y="0px"
	 width="32px" height="32px" viewBox="0 0 32 32" enable-background="new 0 0 32 32" xml:space="preserve">
<rect x="11" y="27" width="10" height="2"/>
<path d="M16,26c6.075,0,11-4.925,11-11S22.075,4,16,4S5,8.925,5,15S9.925,26,16,26z M16,6c4.971,0,9,4.029,9,9s-4.029,9-9,9
	s-9-4.029-9-9S11.029,6,16,6z"/>
<path d="M14.56,16.73h1.492c1.261,0,2.261-0.347,3-1.039s1.109-1.583,1.109-2.672s-0.354-1.933-1.062-2.531S17.393,9.59,16.106,9.59
	h-3.398v11.203h1.852V16.73z M14.56,11.121h1.352c1.531,0,2.297,0.659,2.297,1.977c0,0.672-0.208,1.192-0.625,1.562
	s-1.023,0.555-1.82,0.555H14.56V11.121z"/>
</svg>
