<?xml version="1.0" encoding="utf-8"?>
<!-- Generator: Adobe Illustrator 16.0.4, SVG Export Plug-In . SVG Version: 6.00 Build 0)  -->
<!DOCTYPE svg PUBLIC "-//W3C//DTD SVG 1.1//EN" "http://www.w3.org/Graphics/SVG/1.1/DTD/svg11.dtd">
<svg version="1.1" id="Layer_7" xmlns="http://www.w3.org/2000/svg" xmlns:xlink="http://www.w3.org/1999/xlink" x="0px" y="0px"
	 width="32px" height="32px" viewBox="0 0 32 32" enable-background="new 0 0 32 32" xml:space="preserve">
<path d="M16,4C9.925,4,5,8.925,5,15s4.925,11,11,11s11-4.925,11-11S22.075,4,16,4z M16,24c-4.971,0-9-4.029-9-9s4.029-9,9-9
	s9,4.029,9,9S20.971,24,16,24z"/>
<path d="M14.958,9.59l-4.195,11.203h2.031l0.969-2.852h4.406l1.008,2.852h2.039L17.052,9.59H14.958z M14.247,16.426l1.539-4.469
	c0.058-0.172,0.109-0.406,0.156-0.703h0.031c0.052,0.323,0.102,0.558,0.148,0.703l1.555,4.469H14.247z"/>
</svg>
