<?xml version="1.0" encoding="utf-8"?>
<!-- Generator: Adobe Illustrator 16.0.4, SVG Export Plug-In . SVG Version: 6.00 Build 0)  -->
<!DOCTYPE svg PUBLIC "-//W3C//DTD SVG 1.1//EN" "http://www.w3.org/Graphics/SVG/1.1/DTD/svg11.dtd">
<svg version="1.1" id="Layer_7" xmlns="http://www.w3.org/2000/svg" xmlns:xlink="http://www.w3.org/1999/xlink" x="0px" y="0px"
	 width="32px" height="32px" viewBox="0 0 32 32" enable-background="new 0 0 32 32" xml:space="preserve">
<rect x="11" y="27" width="10" height="2"/>
<rect x="11" y="30" width="10" height="2"/>
<path d="M16,26c6.075,0,11-4.925,11-11S22.075,4,16,4S5,8.925,5,15S9.925,26,16,26z M16,6c4.971,0,9,4.029,9,9s-4.029,9-9,9
	s-9-4.029-9-9S11.029,6,16,6z"/>
<path d="M12.132,20.793h1.88l1.873-6.87c0.087-0.306,0.142-0.62,0.164-0.943h0.027c0.019,0.346,0.066,0.665,0.144,0.957l1.866,6.856
	h1.839l2.687-9.803H20.93l-1.743,7.205c-0.091,0.373-0.144,0.674-0.157,0.902h-0.027c-0.032-0.338-0.08-0.629-0.144-0.875
	l-1.859-7.232h-1.675l-2.01,7.178c-0.109,0.396-0.173,0.711-0.191,0.943h-0.034c-0.019-0.328-0.063-0.643-0.137-0.943l-1.777-7.178
	H9.391L12.132,20.793z"/>
</svg>
