<?xml version="1.0" encoding="utf-8"?>
<!-- Generator: Adobe Illustrator 16.0.4, SVG Export Plug-In . SVG Version: 6.00 Build 0)  -->
<!DOCTYPE svg PUBLIC "-//W3C//DTD SVG 1.1//EN" "http://www.w3.org/Graphics/SVG/1.1/DTD/svg11.dtd">
<svg version="1.1" id="Layer_7" xmlns="http://www.w3.org/2000/svg" xmlns:xlink="http://www.w3.org/1999/xlink" x="0px" y="0px"
	 width="32px" height="32px" viewBox="0 0 32 32" enable-background="new 0 0 32 32" xml:space="preserve">
<path d="M27.609,9.951c-0.533-0.106-0.868-0.416-1.256-0.805C25.843,8.636,25.207,8,24,8s-1.843,0.636-2.354,1.146
	C21.17,9.623,20.793,10,20,10s-1.17-0.377-1.646-0.854C17.843,8.636,17.207,8,16,8s-1.843,0.636-2.354,1.146
	C13.17,9.623,12.793,10,12,10s-1.17-0.377-1.646-0.854C9.843,8.636,9.207,8,8,8S6.157,8.636,5.646,9.146
	c-0.418,0.418-0.774,0.742-1.385,0.82L4,8H1l4,18h21l5-18h-3L27.609,9.951z M24,23H7L4.396,10.974
	c0.955-0.122,1.506-0.669,1.957-1.12C6.83,9.377,7.207,9,8,9s1.17,0.377,1.646,0.854C10.157,10.364,10.793,11,12,11
	s1.843-0.636,2.354-1.146C14.83,9.377,15.207,9,16,9s1.17,0.377,1.646,0.854C18.157,10.364,18.793,11,20,11s1.843-0.636,2.354-1.146
	C22.83,9.377,23.207,9,24,9s1.17,0.377,1.646,0.854c0.42,0.42,0.93,0.918,1.766,1.084L24,23z"/>
<path d="M11.104,13.169c-0.756,0-1.377,0.243-1.864,0.73c-0.486,0.486-0.73,1.109-0.73,1.869c0,0.712,0.207,1.295,0.621,1.748
	c0.413,0.453,0.94,0.68,1.582,0.68c0.791,0,1.346-0.298,1.664-0.892c0.008,0.003,0.015,0.003,0.021,0
	c0,0.905-0.188,1.604-0.563,2.098c-0.376,0.492-0.902,0.738-1.579,0.738c-0.466,0-0.906-0.122-1.321-0.365v1.079
	c0.397,0.183,0.868,0.274,1.413,0.274c1.031,0,1.836-0.385,2.416-1.155c0.58-0.77,0.871-1.863,0.871-3.281
	c0-1.149-0.224-2.024-0.669-2.624C12.52,13.469,11.899,13.169,11.104,13.169z M11.972,16.824c-0.245,0.248-0.545,0.373-0.899,0.373
	c-0.408,0-0.731-0.137-0.97-0.408c-0.238-0.272-0.356-0.648-0.356-1.128c0-0.434,0.121-0.792,0.365-1.074
	c0.243-0.283,0.546-0.425,0.907-0.425c0.391,0,0.708,0.163,0.953,0.489c0.245,0.325,0.368,0.744,0.368,1.257
	C12.34,16.27,12.217,16.575,11.972,16.824z"/>
<path d="M16.857,16.268c-0.2,0-0.417,0.008-0.649,0.021v-1.928h2.862v-1.063h-3.958v4.05c0.562-0.043,0.946-0.064,1.154-0.064
	c0.605,0,1.069,0.121,1.394,0.365c0.324,0.243,0.486,0.583,0.486,1.021c0,0.443-0.159,0.799-0.478,1.066
	c-0.319,0.267-0.74,0.399-1.263,0.399c-0.52,0-1.031-0.17-1.536-0.51v1.197c0.369,0.212,0.93,0.317,1.682,0.317
	c0.891,0,1.592-0.23,2.103-0.69c0.51-0.46,0.765-1.071,0.765-1.834c0-0.728-0.223-1.3-0.668-1.719
	C18.305,16.478,17.674,16.268,16.857,16.268z"/>
<path d="M21.885,13.19c-0.416,0-0.769,0.143-1.059,0.43c-0.29,0.286-0.436,0.637-0.436,1.053c0,0.422,0.147,0.78,0.441,1.074
	c0.293,0.293,0.649,0.44,1.068,0.44c0.415,0,0.77-0.147,1.063-0.44c0.294-0.294,0.44-0.652,0.44-1.074
	c0-0.412-0.147-0.762-0.443-1.05C22.666,13.334,22.307,13.19,21.885,13.19z M22.44,15.236c-0.156,0.158-0.34,0.236-0.551,0.236
	c-0.215,0-0.396-0.077-0.545-0.233c-0.148-0.155-0.224-0.343-0.224-0.562c0-0.215,0.076-0.397,0.229-0.548s0.336-0.226,0.551-0.226
	c0.211,0,0.393,0.074,0.545,0.224c0.152,0.148,0.229,0.332,0.229,0.55C22.674,14.893,22.596,15.079,22.44,15.236z"/>
<rect x="11" y="27" width="10" height="2"/>
</svg>
