<?xml version="1.0" encoding="utf-8"?>
<!-- Generator: Adobe Illustrator 16.0.4, SVG Export Plug-In . SVG Version: 6.00 Build 0)  -->
<!DOCTYPE svg PUBLIC "-//W3C//DTD SVG 1.1//EN" "http://www.w3.org/Graphics/SVG/1.1/DTD/svg11.dtd">
<svg version="1.1" id="Layer_7" xmlns="http://www.w3.org/2000/svg" xmlns:xlink="http://www.w3.org/1999/xlink" x="0px" y="0px"
	 width="32px" height="32px" viewBox="0 0 32 32" enable-background="new 0 0 32 32" xml:space="preserve">
<path d="M27.609,9.951c-0.533-0.106-0.868-0.416-1.256-0.805C25.843,8.636,25.207,8,24,8s-1.843,0.636-2.354,1.146
	C21.17,9.623,20.793,10,20,10s-1.17-0.377-1.646-0.854C17.843,8.636,17.207,8,16,8s-1.843,0.636-2.354,1.146
	C13.17,9.623,12.793,10,12,10s-1.17-0.377-1.646-0.854C9.843,8.636,9.207,8,8,8S6.157,8.636,5.646,9.146
	c-0.418,0.418-0.774,0.742-1.385,0.82L4,8H1l4,18h21l5-18h-3L27.609,9.951z M24,23H7L4.396,10.974
	c0.955-0.122,1.506-0.669,1.957-1.12C6.83,9.377,7.207,9,8,9s1.17,0.377,1.646,0.854C10.157,10.364,10.793,11,12,11
	s1.843-0.636,2.354-1.146C14.83,9.377,15.207,9,16,9s1.17,0.377,1.646,0.854C18.157,10.364,18.793,11,20,11s1.843-0.636,2.354-1.146
	C22.83,9.377,23.207,9,24,9s1.17,0.377,1.646,0.854c0.42,0.42,0.93,0.918,1.766,1.084L24,23z"/>
<rect x="11" y="27" width="10" height="2"/>
<circle cx="21" cy="20" r="2"/>
<circle cx="16" cy="20" r="2"/>
<circle cx="11" cy="20" r="2"/>
<circle cx="21" cy="15" r="2"/>
<circle cx="16" cy="15" r="2"/>
<circle cx="11" cy="15" r="2"/>
</svg>
