<?xml version="1.0" encoding="utf-8"?>
<!-- Generator: Adobe Illustrator 16.0.4, SVG Export Plug-In . SVG Version: 6.00 Build 0)  -->
<!DOCTYPE svg PUBLIC "-//W3C//DTD SVG 1.1//EN" "http://www.w3.org/Graphics/SVG/1.1/DTD/svg11.dtd">
<svg version="1.1" id="Layer_7" xmlns="http://www.w3.org/2000/svg" xmlns:xlink="http://www.w3.org/1999/xlink" x="0px" y="0px"
	 width="32px" height="32px" viewBox="0 0 32 32" enable-background="new 0 0 32 32" xml:space="preserve">
<path d="M27.609,10.098c-0.533-0.106-0.868-0.416-1.256-0.805C25.843,8.782,25.207,8.146,24,8.146s-1.843,0.636-2.354,1.146
	C21.17,9.77,20.793,10.146,20,10.146s-1.17-0.377-1.646-0.854C17.843,8.782,17.207,8.146,16,8.146s-1.843,0.636-2.354,1.146
	C13.17,9.77,12.793,10.146,12,10.146s-1.17-0.377-1.646-0.854C9.843,8.782,9.207,8.146,8,8.146S6.157,8.782,5.646,9.293
	c-0.418,0.418-0.774,0.742-1.385,0.82L4,8.146H1l4,18h21l5-18h-3L27.609,10.098z M24,23.146H7L4.396,11.12
	c0.955-0.122,1.506-0.669,1.957-1.12C6.83,9.523,7.207,9.146,8,9.146S9.17,9.523,9.646,10c0.511,0.511,1.146,1.146,2.354,1.146
	s1.843-0.636,2.354-1.146C14.83,9.523,15.207,9.146,16,9.146S17.17,9.523,17.646,10c0.511,0.511,1.146,1.146,2.354,1.146
	s1.843-0.636,2.354-1.146C22.83,9.523,23.207,9.146,24,9.146S25.17,9.523,25.646,10c0.42,0.42,0.93,0.918,1.766,1.084L24,23.146z"/>
<path d="M11.307,16.27c-0.798,0-1.371,0.322-1.719,0.967H9.566c0-0.893,0.197-1.604,0.592-2.133
	c0.394-0.529,0.918-0.795,1.573-0.795c0.423,0,0.825,0.102,1.208,0.307v-1.08c-0.325-0.146-0.768-0.221-1.326-0.221
	c-0.995,0-1.795,0.403-2.398,1.209s-0.904,1.883-0.904,3.233c0,1.114,0.23,1.979,0.692,2.595c0.462,0.615,1.1,0.924,1.912,0.924
	c0.734,0,1.34-0.242,1.818-0.726c0.478-0.483,0.717-1.108,0.717-1.874c0-0.73-0.193-1.314-0.58-1.752
	C12.483,16.487,11.963,16.27,11.307,16.27z M11.855,19.859c-0.233,0.285-0.537,0.428-0.914,0.428c-0.396,0-0.716-0.164-0.955-0.492
	c-0.24-0.328-0.36-0.723-0.36-1.184c0-0.369,0.121-0.689,0.362-0.959c0.242-0.271,0.557-0.406,0.943-0.406
	c0.404,0,0.718,0.136,0.939,0.406c0.222,0.27,0.333,0.645,0.333,1.125C12.204,19.215,12.088,19.574,11.855,19.859z"/>
<path d="M17.082,13.314c-0.884,0-1.561,0.35-2.029,1.048c-0.47,0.698-0.704,1.728-0.704,3.089c0,1.238,0.225,2.186,0.674,2.841
	s1.075,0.983,1.878,0.983c0.859,0,1.527-0.344,2.006-1.029c0.478-0.686,0.717-1.68,0.717-2.983
	C19.623,14.631,18.776,13.314,17.082,13.314z M16.996,20.287c-0.916,0-1.375-0.964-1.375-2.891c0-2.059,0.468-3.088,1.402-3.088
	c0.885,0,1.326,1.014,1.326,3.04C18.35,19.307,17.898,20.287,16.996,20.287z"/>
<path d="M22.182,13.336c-0.416,0-0.769,0.144-1.059,0.43c-0.29,0.287-0.436,0.638-0.436,1.053c0,0.423,0.147,0.781,0.441,1.074
	c0.293,0.294,0.649,0.441,1.068,0.441c0.415,0,0.77-0.147,1.063-0.441c0.294-0.293,0.44-0.651,0.44-1.074
	c0-0.411-0.147-0.762-0.443-1.049C22.963,13.48,22.604,13.336,22.182,13.336z M22.737,15.383c-0.156,0.158-0.34,0.236-0.551,0.236
	c-0.215,0-0.396-0.078-0.545-0.234c-0.148-0.154-0.224-0.342-0.224-0.561c0-0.215,0.076-0.397,0.229-0.548s0.336-0.226,0.551-0.226
	c0.211,0,0.393,0.074,0.545,0.223s0.229,0.332,0.229,0.551C22.971,15.039,22.893,15.225,22.737,15.383z"/>
<rect x="11" y="27.146" width="10" height="2"/>
</svg>
