<?xml version="1.0" encoding="utf-8"?>
<!-- Generator: Adobe Illustrator 16.0.4, SVG Export Plug-In . SVG Version: 6.00 Build 0)  -->
<!DOCTYPE svg PUBLIC "-//W3C//DTD SVG 1.1//EN" "http://www.w3.org/Graphics/SVG/1.1/DTD/svg11.dtd">
<svg version="1.1" id="Layer_7" xmlns="http://www.w3.org/2000/svg" xmlns:xlink="http://www.w3.org/1999/xlink" x="0px" y="0px"
	 width="32px" height="32px" viewBox="0 0 32 32" enable-background="new 0 0 32 32" xml:space="preserve">
<path d="M28,8l-0.351,1.75l-0.255,0.133c-0.41-0.139-0.71-0.404-1.041-0.736C25.843,8.636,25.207,8,24,8s-1.843,0.636-2.354,1.146
	C21.17,9.623,20.793,10,20,10s-1.17-0.377-1.646-0.854C17.843,8.636,17.207,8,16,8s-1.843,0.636-2.354,1.146
	C13.17,9.623,12.793,10,12,10s-1.17-0.377-1.646-0.854C9.843,8.636,9.207,8,8,8S6.157,8.636,5.646,9.146
	c-0.332,0.332-0.63,0.599-1.042,0.736L4.224,9.684L4,8H1l-1,2.084l1.658,0.88l2.461,11.074L1,23.667L2,26l2.684-1.424L5,26h21
	l0.514-1.85L30,26l1-2.333l-3.801-1.984l2.949-10.616L32,10.084L31,8H28z M6.354,9.854C6.83,9.377,7.207,9,8,9
	s1.17,0.377,1.646,0.854C10.157,10.364,10.793,11,12,11s1.843-0.636,2.354-1.146C14.83,9.377,15.207,9,16,9s1.17,0.377,1.646,0.854
	C18.157,10.364,18.793,11,20,11s1.843-0.636,2.354-1.146C22.83,9.377,23.207,9,24,9s1.17,0.377,1.646,0.854
	c0.195,0.195,0.413,0.404,0.671,0.592L16,15.834L5.682,10.445C5.938,10.257,6.159,10.048,6.354,9.854z M4.749,12.604l8.649,4.589
	l-6.878,3.592L4.749,12.604z M24,23H7.654L16,18.572l8.045,4.269L24,23z M24.736,20.396l-6.135-3.204l8.284-4.396L24.736,20.396z"/>
</svg>
