<?xml version="1.0" encoding="utf-8"?>
<!-- Generator: Adobe Illustrator 16.0.4, SVG Export Plug-In . SVG Version: 6.00 Build 0)  -->
<!DOCTYPE svg PUBLIC "-//W3C//DTD SVG 1.1//EN" "http://www.w3.org/Graphics/SVG/1.1/DTD/svg11.dtd">
<svg version="1.1" id="Icons_OUTLINES" xmlns="http://www.w3.org/2000/svg" xmlns:xlink="http://www.w3.org/1999/xlink" x="0px"
	 y="0px" width="32px" height="32px" viewBox="0 0 32 32" enable-background="new 0 0 32 32" xml:space="preserve">
<g>
	<path d="M22.397,14.826L31,10.333L30,8l-8.859,4.7L16,4l-5.141,8.7L2,8l-1,2.333l8.603,4.493l-3.438,5.819L0,23.916L1,26
		l2.893-1.511L3,26h26l-0.893-1.511L31,26l1-2.084l-6.164-3.271L22.397,14.826z M21.271,18.224l-2.669-1.416l1.433-0.748
		L21.271,18.224z M16,9l2.818,4.933L16,15.428l-2.818-1.495L16,9z M11.966,16.06l1.433,0.748l-2.669,1.416L11.966,16.06z M24,23H8
		l0.534-0.935L16,18.166l7.466,3.899L24,23z"/>
</g>
</svg>
