<?xml version="1.0" encoding="utf-8"?>
<!-- Generator: Adobe Illustrator 16.0.4, SVG Export Plug-In . SVG Version: 6.00 Build 0)  -->
<!DOCTYPE svg PUBLIC "-//W3C//DTD SVG 1.1//EN" "http://www.w3.org/Graphics/SVG/1.1/DTD/svg11.dtd">
<svg version="1.1" id="Icons_OUTLINES" xmlns="http://www.w3.org/2000/svg" xmlns:xlink="http://www.w3.org/1999/xlink" x="0px"
	 y="0px" width="32px" height="32px" viewBox="0 0 32 32" enable-background="new 0 0 32 32" xml:space="preserve">
<g>
	<path d="M2,14v3h1l2,8c0,0.553,0.447,1,1,1h20c0.553,0,1-0.447,1-1l2-8h1v-3H2z M9.5,24h-2C7.224,24,7,23.776,7,23.5
		S7.224,23,7.5,23h2c0.276,0,0.5,0.224,0.5,0.5S9.776,24,9.5,24z M9.5,22h-2C7.224,22,7,21.776,7,21.5S7.224,21,7.5,21h2
		c0.276,0,0.5,0.224,0.5,0.5S9.776,22,9.5,22z M9.5,20h-2C7.224,20,7,19.776,7,19.5S7.224,19,7.5,19h2c0.276,0,0.5,0.224,0.5,0.5
		S9.776,20,9.5,20z M9.5,18h-2C7.224,18,7,17.776,7,17.5S7.224,17,7.5,17h2c0.276,0,0.5,0.224,0.5,0.5S9.776,18,9.5,18z M14.5,24h-2
		c-0.276,0-0.5-0.224-0.5-0.5s0.224-0.5,0.5-0.5h2c0.276,0,0.5,0.224,0.5,0.5S14.776,24,14.5,24z M14.5,22h-2
		c-0.276,0-0.5-0.224-0.5-0.5s0.224-0.5,0.5-0.5h2c0.276,0,0.5,0.224,0.5,0.5S14.776,22,14.5,22z M14.5,20h-2
		c-0.276,0-0.5-0.224-0.5-0.5s0.224-0.5,0.5-0.5h2c0.276,0,0.5,0.224,0.5,0.5S14.776,20,14.5,20z M14.5,18h-2
		c-0.276,0-0.5-0.224-0.5-0.5s0.224-0.5,0.5-0.5h2c0.276,0,0.5,0.224,0.5,0.5S14.776,18,14.5,18z M19.5,24h-2
		c-0.276,0-0.5-0.224-0.5-0.5s0.224-0.5,0.5-0.5h2c0.276,0,0.5,0.224,0.5,0.5S19.776,24,19.5,24z M19.5,22h-2
		c-0.276,0-0.5-0.224-0.5-0.5s0.224-0.5,0.5-0.5h2c0.276,0,0.5,0.224,0.5,0.5S19.776,22,19.5,22z M19.5,20h-2
		c-0.276,0-0.5-0.224-0.5-0.5s0.224-0.5,0.5-0.5h2c0.276,0,0.5,0.224,0.5,0.5S19.776,20,19.5,20z M19.5,18h-2
		c-0.276,0-0.5-0.224-0.5-0.5s0.224-0.5,0.5-0.5h2c0.276,0,0.5,0.224,0.5,0.5S19.776,18,19.5,18z M24.5,24h-2
		c-0.276,0-0.5-0.224-0.5-0.5s0.224-0.5,0.5-0.5h2c0.276,0,0.5,0.224,0.5,0.5S24.776,24,24.5,24z M24.5,22h-2
		c-0.276,0-0.5-0.224-0.5-0.5s0.224-0.5,0.5-0.5h2c0.276,0,0.5,0.224,0.5,0.5S24.776,22,24.5,22z M24.5,20h-2
		c-0.276,0-0.5-0.224-0.5-0.5s0.224-0.5,0.5-0.5h2c0.276,0,0.5,0.224,0.5,0.5S24.776,20,24.5,20z M24.5,18h-2
		c-0.276,0-0.5-0.224-0.5-0.5s0.224-0.5,0.5-0.5h2c0.276,0,0.5,0.224,0.5,0.5S24.776,18,24.5,18z"/>
</g>
</svg>
