<?xml version="1.0" encoding="utf-8"?>
<!-- Generator: Adobe Illustrator 16.0.4, SVG Export Plug-In . SVG Version: 6.00 Build 0)  -->
<!DOCTYPE svg PUBLIC "-//W3C//DTD SVG 1.1//EN" "http://www.w3.org/Graphics/SVG/1.1/DTD/svg11.dtd">
<svg version="1.1" id="Icons_OUTLINES" xmlns="http://www.w3.org/2000/svg" xmlns:xlink="http://www.w3.org/1999/xlink" x="0px"
	 y="0px" width="32px" height="32px" viewBox="0 0 32 32" enable-background="new 0 0 32 32" xml:space="preserve">
<g>
	<path d="M2,17h1l2,8c0,0.553,0.447,1,1,1h20c0.553,0,1-0.447,1-1l2-8h1v-3H2V17z M22.5,17h2c0.276,0,0.5,0.224,0.5,0.5
		S24.776,18,24.5,18h-2c-0.276,0-0.5-0.224-0.5-0.5S22.224,17,22.5,17z M22.5,19h2c0.276,0,0.5,0.224,0.5,0.5S24.776,20,24.5,20h-2
		c-0.276,0-0.5-0.224-0.5-0.5S22.224,19,22.5,19z M22.5,21h2c0.276,0,0.5,0.224,0.5,0.5S24.776,22,24.5,22h-2
		c-0.276,0-0.5-0.224-0.5-0.5S22.224,21,22.5,21z M22.5,23h2c0.276,0,0.5,0.224,0.5,0.5S24.776,24,24.5,24h-2
		c-0.276,0-0.5-0.224-0.5-0.5S22.224,23,22.5,23z M17.5,17h2c0.276,0,0.5,0.224,0.5,0.5S19.776,18,19.5,18h-2
		c-0.276,0-0.5-0.224-0.5-0.5S17.224,17,17.5,17z M17.5,19h2c0.276,0,0.5,0.224,0.5,0.5S19.776,20,19.5,20h-2
		c-0.276,0-0.5-0.224-0.5-0.5S17.224,19,17.5,19z M17.5,21h2c0.276,0,0.5,0.224,0.5,0.5S19.776,22,19.5,22h-2
		c-0.276,0-0.5-0.224-0.5-0.5S17.224,21,17.5,21z M17.5,23h2c0.276,0,0.5,0.224,0.5,0.5S19.776,24,19.5,24h-2
		c-0.276,0-0.5-0.224-0.5-0.5S17.224,23,17.5,23z M12.5,17h2c0.276,0,0.5,0.224,0.5,0.5S14.776,18,14.5,18h-2
		c-0.276,0-0.5-0.224-0.5-0.5S12.224,17,12.5,17z M12.5,19h2c0.276,0,0.5,0.224,0.5,0.5S14.776,20,14.5,20h-2
		c-0.276,0-0.5-0.224-0.5-0.5S12.224,19,12.5,19z M12.5,21h2c0.276,0,0.5,0.224,0.5,0.5S14.776,22,14.5,22h-2
		c-0.276,0-0.5-0.224-0.5-0.5S12.224,21,12.5,21z M12.5,23h2c0.276,0,0.5,0.224,0.5,0.5S14.776,24,14.5,24h-2
		c-0.276,0-0.5-0.224-0.5-0.5S12.224,23,12.5,23z M7.5,17h2c0.276,0,0.5,0.224,0.5,0.5S9.776,18,9.5,18h-2C7.224,18,7,17.776,7,17.5
		S7.224,17,7.5,17z M7.5,19h2c0.276,0,0.5,0.224,0.5,0.5S9.776,20,9.5,20h-2C7.224,20,7,19.776,7,19.5S7.224,19,7.5,19z M7.5,21h2
		c0.276,0,0.5,0.224,0.5,0.5S9.776,22,9.5,22h-2C7.224,22,7,21.776,7,21.5S7.224,21,7.5,21z M7.5,23h2c0.276,0,0.5,0.224,0.5,0.5
		S9.776,24,9.5,24h-2C7.224,24,7,23.776,7,23.5S7.224,23,7.5,23z"/>
	<path d="M5.5,13H27c0.276,0,0.5-0.224,0.5-0.5S27.276,12,27,12H5.5C5.224,12,5,12.224,5,12.5S5.224,13,5.5,13z"/>
	<path d="M5,10.5C5,10.776,5.224,11,5.5,11H24c0.276,0,0.5-0.224,0.5-0.5S24.276,10,24,10H5.5C5.224,10,5,10.224,5,10.5z"/>
	<path d="M7,9h17c0.276,0,0.5-0.224,0.5-0.5S24.276,8,24,8H7C6.724,8,6.5,8.224,6.5,8.5S6.724,9,7,9z"/>
	<path d="M7,7h14c0.276,0,0.5-0.224,0.5-0.5S21.276,6,21,6H7C6.724,6,6.5,6.224,6.5,6.5S6.724,7,7,7z"/>
</g>
</svg>
