<?xml version="1.0" encoding="utf-8"?>
<!-- Generator: Adobe Illustrator 16.0.4, SVG Export Plug-In . SVG Version: 6.00 Build 0)  -->
<!DOCTYPE svg PUBLIC "-//W3C//DTD SVG 1.1//EN" "http://www.w3.org/Graphics/SVG/1.1/DTD/svg11.dtd">
<svg version="1.1" id="Icons_OUTLINES" xmlns="http://www.w3.org/2000/svg" xmlns:xlink="http://www.w3.org/1999/xlink" x="0px"
	 y="0px" width="32px" height="32px" viewBox="0 0 32 32" enable-background="new 0 0 32 32" xml:space="preserve">
<g>
	<path d="M10,19c0,8,0,8,0,8s0,1,1,1s9,0,9,0s1,0,1-1s0,0,0-8s-4-9-4-9h-3C14,10,10,11,10,19z M16.793,11.238
		c0.79-0.247,1.832,0.833,2.328,2.415c0.495,1.581,0.256,3.063-0.535,3.312c-0.79,0.247-1.832-0.833-2.328-2.415
		C15.763,12.969,16.002,11.486,16.793,11.238z"/>
	<path d="M17,6c0,0,0-1-1-1s-1,0-1,0s-1,0-1,1s0,3,0,3h3V6z"/>
</g>
</svg>
