<?xml version="1.0" encoding="utf-8"?>
<!-- Generator: Adobe Illustrator 16.0.4, SVG Export Plug-In . SVG Version: 6.00 Build 0)  -->
<!DOCTYPE svg PUBLIC "-//W3C//DTD SVG 1.1//EN" "http://www.w3.org/Graphics/SVG/1.1/DTD/svg11.dtd">
<svg version="1.1" id="Icons_OUTLINES" xmlns="http://www.w3.org/2000/svg" xmlns:xlink="http://www.w3.org/1999/xlink" x="0px"
	 y="0px" width="32px" height="32px" viewBox="0 0 32 32" enable-background="new 0 0 32 32" xml:space="preserve">
<g>
	<path d="M28,4H4v24h24V4z M25,16v9h-9H7v-9V7h9h9V16z"/>
	<path d="M16,7c-4.971,0-9,4.029-9,9s4.029,9,9,9s9-4.029,9-9S20.971,7,16,7z M16,24c-4.418,0-8-3.582-8-8s3.582-8,8-8s8,3.582,8,8
		S20.418,24,16,24z"/>
</g>
</svg>
