<?xml version="1.0" encoding="utf-8"?>
<!-- Generator: Adobe Illustrator 16.0.4, SVG Export Plug-In . SVG Version: 6.00 Build 0)  -->
<!DOCTYPE svg PUBLIC "-//W3C//DTD SVG 1.1//EN" "http://www.w3.org/Graphics/SVG/1.1/DTD/svg11.dtd">
<svg version="1.1" id="Icons_OUTLINES" xmlns="http://www.w3.org/2000/svg" xmlns:xlink="http://www.w3.org/1999/xlink" x="0px"
	 y="0px" width="32px" height="32px" viewBox="0 0 32 32" enable-background="new 0 0 32 32" xml:space="preserve">
<g>
	<path d="M4,28h24V4H4V28z M17,7h5.627C20.729,8.262,18.451,9,16,9c-0.323,0-0.644-0.015-0.96-0.04L17,7z M13,7h2l-1.694,1.694
		c-0.525-0.121-1.036-0.279-1.533-0.467L13,7z M11,7l-0.602,0.602C10.047,7.416,9.702,7.219,9.373,7H11z M7,7.701
		C7.602,8.21,8.248,8.668,8.93,9.07L7,11V7.701z M7,13l3.251-3.251c0.467,0.213,0.95,0.396,1.443,0.557L7,15V13z M7,17l6.275-6.275
		C14.157,10.9,15.066,11,16,11c3.434,0,6.568-1.245,9-3.299V25H7V17z"/>
</g>
</svg>
