<?xml version="1.0" encoding="utf-8"?>
<!-- Generator: Adobe Illustrator 16.0.4, SVG Export Plug-In . SVG Version: 6.00 Build 0)  -->
<!DOCTYPE svg PUBLIC "-//W3C//DTD SVG 1.1//EN" "http://www.w3.org/Graphics/SVG/1.1/DTD/svg11.dtd">
<svg version="1.1" id="Icons_OUTLINES" xmlns="http://www.w3.org/2000/svg" xmlns:xlink="http://www.w3.org/1999/xlink" x="0px"
	 y="0px" width="32px" height="32px" viewBox="0 0 32 32" enable-background="new 0 0 32 32" xml:space="preserve">
<g>
	<path d="M16,4C9.925,4,5,8.925,5,15s4.925,11,11,11s11-4.925,11-11S22.075,4,16,4z M16,24c-4.971,0-9-4.029-9-9s4.029-9,9-9
		s9,4.029,9,9S20.971,24,16,24z"/>
	<path d="M20.93,10.99l-1.743,7.205c-0.091,0.373-0.144,0.674-0.157,0.902h-0.027c-0.032-0.338-0.08-0.629-0.144-0.875l-1.859-7.232
		h-1.675l-2.01,7.178c-0.109,0.396-0.173,0.711-0.191,0.943h-0.034c-0.019-0.328-0.063-0.643-0.137-0.943l-1.777-7.178H9.391
		l2.741,9.803h1.88l1.873-6.871c0.087-0.305,0.142-0.619,0.164-0.943h0.027c0.019,0.347,0.066,0.666,0.144,0.957l1.866,6.857h1.839
		l2.687-9.803H20.93z"/>
</g>
</svg>
