<?xml version="1.0" encoding="utf-8"?>
<!-- Generator: Adobe Illustrator 16.0.4, SVG Export Plug-In . SVG Version: 6.00 Build 0)  -->
<!DOCTYPE svg PUBLIC "-//W3C//DTD SVG 1.1//EN" "http://www.w3.org/Graphics/SVG/1.1/DTD/svg11.dtd">
<svg version="1.1" id="Icons_OUTLINES" xmlns="http://www.w3.org/2000/svg" xmlns:xlink="http://www.w3.org/1999/xlink" x="0px"
	 y="0px" width="32px" height="32px" viewBox="0 0 32 32" enable-background="new 0 0 32 32" xml:space="preserve">
<g>
	<path d="M31,9.333L30,7l-2,1.098V4H4v4.098L2,7L1,9.333l3,1.621V21.27l-3,1.646L2,25l2-1.08V28h24v-4.08L30,25l1-2.084l-3-1.646
		V10.954L31,9.333z M7,7h18v2.744l-9,4.939L7,9.744V7z M7,12.574l6.472,3.497L7,19.623V12.574z M25,25H7v-2.701l9-4.862l9,4.862V25z
		 M25,19.623l-6.472-3.552L25,12.574V19.623z"/>
</g>
</svg>
