<?xml version="1.0" encoding="utf-8"?>
<!-- Generator: Adobe Illustrator 16.0.4, SVG Export Plug-In . SVG Version: 6.00 Build 0)  -->
<!DOCTYPE svg PUBLIC "-//W3C//DTD SVG 1.1//EN" "http://www.w3.org/Graphics/SVG/1.1/DTD/svg11.dtd">
<svg version="1.1" id="Icons_OUTLINES" xmlns="http://www.w3.org/2000/svg" xmlns:xlink="http://www.w3.org/1999/xlink" x="0px"
	 y="0px" width="32px" height="32px" viewBox="0 0 32 32" enable-background="new 0 0 32 32" xml:space="preserve">
<g>
	<path d="M4,25l3.779-2.709C9.795,24.562,12.726,26,16,26c3.263,0,6.186-1.429,8.2-3.686L28,25l1-2.084l-3.449-2.472
		C26.468,18.838,27,16.982,27,15s-0.532-3.838-1.449-5.444L29,7.084L28,5l-3.8,2.686C22.186,5.429,19.263,4,16,4
		c-3.274,0-6.205,1.438-8.221,3.709L4,5L3,7.332l3.358,2.374C5.494,11.276,5,13.08,5,15s0.494,3.724,1.358,5.294L3,22.668L4,25z
		 M16,24c-2.604,0-4.942-1.112-6.586-2.88l6.502-4.66l6.64,4.692C20.914,22.901,18.588,24,16,24z M25,15
		c0,1.548-0.392,3.004-1.079,4.275L17.954,15l5.967-4.275C24.608,11.996,25,13.452,25,15z M16,6c2.588,0,4.914,1.099,6.556,2.848
		l-6.64,4.692L9.414,8.88C11.058,7.112,13.396,6,16,6z M7,15c0-1.489,0.368-2.891,1.009-4.129L13.85,15l-5.841,4.129
		C7.368,17.891,7,16.489,7,15z"/>
</g>
</svg>
