<?xml version="1.0" encoding="utf-8"?>
<!-- Generator: Adobe Illustrator 16.0.4, SVG Export Plug-In . SVG Version: 6.00 Build 0)  -->
<!DOCTYPE svg PUBLIC "-//W3C//DTD SVG 1.1//EN" "http://www.w3.org/Graphics/SVG/1.1/DTD/svg11.dtd">
<svg version="1.1" id="Icons_OUTLINES" xmlns="http://www.w3.org/2000/svg" xmlns:xlink="http://www.w3.org/1999/xlink" x="0px"
	 y="0px" width="32px" height="32px" viewBox="0 0 32 32" enable-background="new 0 0 32 32" xml:space="preserve">
<g>
	<path d="M31,9.333L30,7l-2,1.098V4H4v4.098L2,7L1,9.333l3,1.621V21.27l-3,1.646L2,25l2-1.08V28h24v-4.08L30,25l1-2.084l-3-1.646
		V10.954L31,9.333z M7,7h9h9v2.744l-1.738,0.954C21.624,8.46,18.985,7,16,7s-5.624,1.46-7.262,3.698L7,9.744V7z M24,16
		c0,0.984-0.187,1.923-0.512,2.794l-4.96-2.723l5.017-2.711C23.835,14.188,24,15.074,24,16z M8,16c0-0.926,0.165-1.812,0.455-2.64
		l5.017,2.711l-4.96,2.723C8.187,17.923,8,16.984,8,16z M16,17.437l6.342,3.427C20.88,22.768,18.586,24,16,24
		s-4.88-1.232-6.342-3.137L16,17.437z M16,14.684l-6.377-3.5C11.084,9.253,13.393,8,16,8s4.916,1.253,6.377,3.184L16,14.684z M7,16
		v-3.426l0.566,0.307C7.207,13.854,7,14.901,7,16c0,1.158,0.227,2.263,0.625,3.279L7,19.623V16z M25,25h-9H7v-2.701l1.77-0.956
		C10.409,23.558,13.032,25,16,25s5.591-1.442,7.23-3.657L25,22.299V25z M25,16v3.623l-0.625-0.344C24.773,18.263,25,17.158,25,16
		c0-1.099-0.206-2.146-0.566-3.119L25,12.574V16z"/>
</g>
</svg>
