<?xml version="1.0" encoding="utf-8"?>
<!-- Generator: Adobe Illustrator 16.0.4, SVG Export Plug-In . SVG Version: 6.00 Build 0)  -->
<!DOCTYPE svg PUBLIC "-//W3C//DTD SVG 1.1//EN" "http://www.w3.org/Graphics/SVG/1.1/DTD/svg11.dtd">
<svg version="1.1" id="Icons_OUTLINES" xmlns="http://www.w3.org/2000/svg" xmlns:xlink="http://www.w3.org/1999/xlink" x="0px"
	 y="0px" width="32px" height="32px" viewBox="0 0 32 32" enable-background="new 0 0 32 32" xml:space="preserve">
<g>
	<path d="M31,15l-1-2.333l-4.027,1.979L25,11c0,0,0-2-3-2S6,9,6,9l1,2c0,0,12,1,14,1s2,2,2,2l0.324,1.947L23.217,16
		c-2.865,0-7.432,0-11.217,0c-0.913,0-1.731,0.136-2.471,0.366L2,12.667L1,15l5.884,2.84c-3.137,2.701-3.803,7.481-3.876,8.09
		L1,26.916L2,29l6.214-3h15.572L30,29l1-2.084l-2.021-0.993l-2.351-8.812L31,15z M19.146,18L16,19.546L12.854,18H19.146z M5.451,24
		c0.502-1.708,1.515-3.969,3.485-5.169l4.296,2.074L6.935,24H5.451z M12.357,24L16,22.241L19.643,24H12.357z M24.632,23.787
		l-5.864-2.882L23.75,18.5L24.632,23.787z"/>
</g>
</svg>
