<?xml version="1.0" encoding="utf-8"?>
<!-- Generator: Adobe Illustrator 16.0.4, SVG Export Plug-In . SVG Version: 6.00 Build 0)  -->
<!DOCTYPE svg PUBLIC "-//W3C//DTD SVG 1.1//EN" "http://www.w3.org/Graphics/SVG/1.1/DTD/svg11.dtd">
<svg version="1.1" id="Icons_OUTLINES" xmlns="http://www.w3.org/2000/svg" xmlns:xlink="http://www.w3.org/1999/xlink" x="0px"
	 y="0px" width="32px" height="32px" viewBox="0 0 32 32" enable-background="new 0 0 32 32" xml:space="preserve">
<g>
	<path d="M30,17.667L27.08,18.8L25,11c0,0,0-2-3-2S6,9,6,9l1,2c0,0,12,1,14,1s2,2,2,2l0.333,2c-2.857,0-7.499,0-11.333,0
		c-2.962,0-4.963,1.372-6.31,3.099L2,17.667L1,20l3.368,1.277C3.234,23.682,3,26,3,26h5.518L1,28.916L2,31l9.739-3.694L11,31h2
		l0.903-4.515L15.182,26h1.637l1.278,0.485L19,31h2l-0.739-3.694L30,31l1-2.084L23.482,26H25h4l-1.27-4.76L31,20L30,17.667z M12,18
		h11.667l0.332,1.994L16,23.098l-8.331-3.231C8.69,18.785,10.086,18,12,18z M6.229,21.983L11.546,24H5.451
		C5.635,23.376,5.887,22.677,6.229,21.983z M24.667,24h-4.213l3.962-1.503L24.667,24z"/>
</g>
</svg>
