<?xml version="1.0" encoding="utf-8"?>
<!-- Generator: Adobe Illustrator 16.0.4, SVG Export Plug-In . SVG Version: 6.00 Build 0)  -->
<!DOCTYPE svg PUBLIC "-//W3C//DTD SVG 1.1//EN" "http://www.w3.org/Graphics/SVG/1.1/DTD/svg11.dtd">
<svg version="1.1" id="Icons_OUTLINES" xmlns="http://www.w3.org/2000/svg" xmlns:xlink="http://www.w3.org/1999/xlink" x="0px"
	 y="0px" width="32px" height="32px" viewBox="0 0 32 32" enable-background="new 0 0 32 32" xml:space="preserve">
<g>
	<path d="M29,26l-4-15c0,0,0-2-3-2S6,9,6,9l1,2c0,0,12,1,14,1s2,2,2,2l0.333,2c-2.857,0-7.499,0-11.333,0c-8,0-9,10-9,10h22H29z
		 M5.451,24C6.166,21.566,7.91,18,12,18h11.667l1,6H5.451z"/>
	<circle cx="19" cy="21" r="2"/>
	<circle cx="14" cy="21" r="2"/>
</g>
</svg>
