<?xml version="1.0" encoding="utf-8"?>
<!-- Generator: Adobe Illustrator 16.0.4, SVG Export Plug-In . SVG Version: 6.00 Build 0)  -->
<!DOCTYPE svg PUBLIC "-//W3C//DTD SVG 1.1//EN" "http://www.w3.org/Graphics/SVG/1.1/DTD/svg11.dtd">
<svg version="1.1" id="Icons_OUTLINES" xmlns="http://www.w3.org/2000/svg" xmlns:xlink="http://www.w3.org/1999/xlink" x="0px"
	 y="0px" width="32px" height="32px" viewBox="0 0 32 32" enable-background="new 0 0 32 32" xml:space="preserve">
<g>
	<path d="M12.534,13.301h-1.332l-3.34,5.037v0.807h3.502v1.857h1.17v-1.857h0.962v-0.94h-0.962V13.301z M11.364,15.223v2.981H9.006
		l2.095-3.163c0.133-0.236,0.221-0.412,0.264-0.527h0.021C11.371,14.775,11.364,15.012,11.364,15.223z"/>
	<path d="M17.102,13.172c-0.884,0-1.561,0.349-2.029,1.047c-0.47,0.698-0.704,1.728-0.704,3.088c0,1.239,0.225,2.187,0.674,2.842
		s1.075,0.982,1.878,0.982c0.859,0,1.527-0.342,2.006-1.027c0.478-0.687,0.717-1.682,0.717-2.984
		C19.643,14.487,18.796,13.172,17.102,13.172z M17.016,20.143c-0.916,0-1.375-0.963-1.375-2.889c0-2.06,0.468-3.089,1.402-3.089
		c0.885,0,1.326,1.013,1.326,3.04C18.369,19.164,17.918,20.143,17.016,20.143z"/>
	<path d="M22.2,13.193c-0.416,0-0.769,0.143-1.059,0.43c-0.29,0.286-0.436,0.637-0.436,1.053c0,0.422,0.147,0.78,0.441,1.074
		c0.293,0.293,0.649,0.439,1.068,0.439c0.415,0,0.77-0.146,1.063-0.439c0.294-0.294,0.44-0.652,0.44-1.074
		c0-0.412-0.147-0.762-0.443-1.051C22.981,13.337,22.622,13.193,22.2,13.193z M22.756,15.239c-0.156,0.157-0.34,0.236-0.551,0.236
		c-0.215,0-0.396-0.077-0.545-0.233s-0.224-0.344-0.224-0.562c0-0.215,0.076-0.397,0.229-0.548s0.336-0.226,0.551-0.226
		c0.211,0,0.393,0.074,0.545,0.224c0.152,0.148,0.229,0.332,0.229,0.55C22.989,14.896,22.911,15.082,22.756,15.239z"/>
	<path d="M27.609,9.951c-0.533-0.106-0.868-0.417-1.256-0.805C25.843,8.636,25.207,8,24,8s-1.843,0.636-2.354,1.146
		C21.17,9.623,20.793,10,20,10s-1.17-0.377-1.646-0.854C17.843,8.636,17.207,8,16,8s-1.843,0.636-2.354,1.146
		C13.17,9.623,12.793,10,12,10s-1.17-0.377-1.646-0.854C9.843,8.636,9.207,8,8,8S6.157,8.636,5.646,9.146
		C5.259,9.534,4.924,9.845,4.391,9.951L4,8H1l4,18h22l4-18h-3L27.609,9.951z M25,23H7L4.588,10.938
		c0.836-0.167,1.346-0.665,1.766-1.085C6.83,9.377,7.207,9,8,9s1.17,0.377,1.646,0.854C10.157,10.364,10.793,11,12,11
		s1.843-0.636,2.354-1.146C14.83,9.377,15.207,9,16,9s1.17,0.377,1.646,0.854C18.157,10.364,18.793,11,20,11
		s1.843-0.636,2.354-1.146C22.83,9.377,23.207,9,24,9s1.17,0.377,1.646,0.854c0.42,0.42,0.93,0.918,1.766,1.085L25,23z"/>
</g>
</svg>
