<?xml version="1.0" encoding="utf-8"?>
<!-- Generator: Adobe Illustrator 16.0.4, SVG Export Plug-In . SVG Version: 6.00 Build 0)  -->
<!DOCTYPE svg PUBLIC "-//W3C//DTD SVG 1.1//EN" "http://www.w3.org/Graphics/SVG/1.1/DTD/svg11.dtd">
<svg version="1.1" id="Icons_OUTLINES" xmlns="http://www.w3.org/2000/svg" xmlns:xlink="http://www.w3.org/1999/xlink" x="0px"
	 y="0px" width="32px" height="32px" viewBox="0 0 32 32" enable-background="new 0 0 32 32" xml:space="preserve">
<g>
	<path d="M29,8.084L28,6l-7.779,5.498C19.168,11.141,18.146,11,17.22,11C14.785,11,13,11.893,13,11.893h-0.777L4,6L3,8.332
		l5.038,3.561H4V20h3l1.408-1.631c0.323,0.292,0.647,0.555,0.976,0.787L3,23.668L4,26l7.809-5.596
		c1.042,0.35,2.054,0.488,2.972,0.488C17.215,20.893,19,20,19,20h0.51L28,26l1-2.084L23.535,20H28v-8.107h-3l-1.408,1.631
		c-0.341-0.308-0.684-0.585-1.028-0.826L29,8.084z M19.181,12.232l-3.265,2.308l-2.389-1.712l0.099-0.121
		C14.099,12.507,15.467,12,17.22,12C17.897,12,18.55,12.082,19.181,12.232z M6.542,19H5v-6.107h4.453l1.467,1.037L6.542,19z
		 M9.372,17.902L12,14.692L13.85,16l-3.601,2.545C9.95,18.35,9.656,18.141,9.372,17.902z M12.841,19.664l3.075-2.204l2.447,1.729
		c-0.48,0.203-1.841,0.703-3.583,0.703C14.11,19.893,13.465,19.812,12.841,19.664z M25.458,12.893H27V19h-4.859l-1.209-0.866
		L25.458,12.893z M22.628,13.99l-2.766,3.377L17.954,16l3.746-2.685C22.017,13.52,22.328,13.739,22.628,13.99z"/>
</g>
</svg>
