<?xml version="1.0" encoding="utf-8"?>
<!-- Generator: Adobe Illustrator 16.0.4, SVG Export Plug-In . SVG Version: 6.00 Build 0)  -->
<!DOCTYPE svg PUBLIC "-//W3C//DTD SVG 1.1//EN" "http://www.w3.org/Graphics/SVG/1.1/DTD/svg11.dtd">
<svg version="1.1" id="Icons_OUTLINES" xmlns="http://www.w3.org/2000/svg" xmlns:xlink="http://www.w3.org/1999/xlink" x="0px"
	 y="0px" width="32px" height="32px" viewBox="0 0 32 32" enable-background="new 0 0 32 32" xml:space="preserve">
<g>
	<polygon points="8.413,14.361 12.168,14.361 9.348,21 10.658,21 13.559,13.803 13.559,13.297 8.413,13.297 	"/>
	<path d="M16.897,13.168c-0.884,0-1.561,0.35-2.029,1.048c-0.47,0.698-0.704,1.728-0.704,3.089c0,1.238,0.225,2.186,0.674,2.841
		s1.075,0.983,1.878,0.983c0.859,0,1.527-0.344,2.006-1.029c0.478-0.686,0.717-1.68,0.717-2.983
		C19.438,14.484,18.592,13.168,16.897,13.168z M16.812,20.141c-0.916,0-1.375-0.964-1.375-2.891c0-2.059,0.468-3.088,1.402-3.088
		c0.885,0,1.326,1.014,1.326,3.04C18.165,19.16,17.714,20.141,16.812,20.141z"/>
	<path d="M21.997,13.189c-0.416,0-0.769,0.144-1.059,0.43c-0.29,0.287-0.436,0.638-0.436,1.053c0,0.423,0.147,0.781,0.441,1.074
		c0.293,0.294,0.649,0.441,1.068,0.441c0.415,0,0.77-0.147,1.063-0.441c0.294-0.293,0.44-0.651,0.44-1.074
		c0-0.411-0.147-0.762-0.443-1.049C22.778,13.334,22.419,13.189,21.997,13.189z M22.553,15.236c-0.156,0.158-0.34,0.236-0.551,0.236
		c-0.215,0-0.396-0.078-0.545-0.234c-0.148-0.154-0.224-0.342-0.224-0.561c0-0.215,0.076-0.397,0.229-0.548s0.336-0.226,0.551-0.226
		c0.211,0,0.393,0.074,0.545,0.223s0.229,0.332,0.229,0.551C22.786,14.893,22.708,15.078,22.553,15.236z"/>
	<path d="M27.609,9.951c-0.533-0.106-0.868-0.417-1.256-0.805C25.843,8.636,25.207,8,24,8s-1.843,0.636-2.354,1.146
		C21.17,9.623,20.793,10,20,10s-1.17-0.377-1.646-0.854C17.843,8.636,17.207,8,16,8s-1.843,0.636-2.354,1.146
		C13.17,9.623,12.793,10,12,10s-1.17-0.377-1.646-0.854C9.843,8.636,9.207,8,8,8S6.157,8.636,5.646,9.146
		C5.259,9.534,4.924,9.845,4.391,9.951L4,8H1l4,18h22l4-18h-3L27.609,9.951z M25,23H7L4.588,10.938
		c0.836-0.167,1.346-0.665,1.766-1.085C6.83,9.377,7.207,9,8,9s1.17,0.377,1.646,0.854C10.157,10.364,10.793,11,12,11
		s1.843-0.636,2.354-1.146C14.83,9.377,15.207,9,16,9s1.17,0.377,1.646,0.854C18.157,10.364,18.793,11,20,11
		s1.843-0.636,2.354-1.146C22.83,9.377,23.207,9,24,9s1.17,0.377,1.646,0.854c0.42,0.42,0.93,0.918,1.766,1.085L25,23z"/>
</g>
</svg>
