<?xml version="1.0" encoding="utf-8"?>
<!-- Generator: Adobe Illustrator 16.0.4, SVG Export Plug-In . SVG Version: 6.00 Build 0)  -->
<!DOCTYPE svg PUBLIC "-//W3C//DTD SVG 1.1//EN" "http://www.w3.org/Graphics/SVG/1.1/DTD/svg11.dtd">
<svg version="1.1" id="Icons_OUTLINES" xmlns="http://www.w3.org/2000/svg" xmlns:xlink="http://www.w3.org/1999/xlink" x="0px"
	 y="0px" width="32px" height="32px" viewBox="0 0 32 32" enable-background="new 0 0 32 32" xml:space="preserve">
<g>
	<path d="M10,13c0,1.61,1.128,2.275,2,1.895V19c0,1.947,1.645,2.491,2.5,1.526c0.557,0.627,1.443,0.627,2,0
		C16.778,20.84,17.141,21,17.5,21c0.745,0,1.5-0.688,1.5-2v-3.105c0.56,0.242,1.202,0.044,1.588-0.47C20.857,15.065,21,14.572,21,14
		v-4c0-3.093-0.463-5.038-0.775-6h-1.06C19.417,4.679,20,6.615,20,10v4c0,0.35-0.075,0.643-0.213,0.825
		C19.502,15.211,19,14.92,19,14v-2.5h-1V19c0,1.299-1,1.299-1,0v-6.5h-1V19c0,1.299-1,1.299-1,0v-6.5h-1V19c0,1.299-1,1.299-1,0v-9
		h-1v3c0,1.299-1,1.299-1,0V9c0-1.771,2.534-4.115,3.669-5h-1.543C11.88,5.13,10,7.143,10,9V13z"/>
	<path d="M27.609,9.951c-0.533-0.106-0.868-0.417-1.256-0.805C25.843,8.636,25.207,8,24,8c-0.947,0-1.541,0.392-2,0.808v1.385
		c0.126-0.113,0.243-0.229,0.354-0.339C22.83,9.377,23.207,9,24,9s1.17,0.377,1.646,0.854c0.42,0.42,0.93,0.918,1.766,1.085L25,23H7
		L4.588,10.938c0.836-0.167,1.346-0.665,1.766-1.085C6.83,9.377,7.207,9,8,9c0.429,0,0.733,0.115,1,0.292V8.178
		C8.715,8.07,8.39,8,8,8C6.793,8,6.157,8.636,5.646,9.146C5.259,9.534,4.924,9.845,4.391,9.951L4,8H1l4,18h22l4-18h-3L27.609,9.951z
		"/>
</g>
</svg>
