<?xml version="1.0" encoding="utf-8"?>
<!-- Generator: Adobe Illustrator 16.0.4, SVG Export Plug-In . SVG Version: 6.00 Build 0)  -->
<!DOCTYPE svg PUBLIC "-//W3C//DTD SVG 1.1//EN" "http://www.w3.org/Graphics/SVG/1.1/DTD/svg11.dtd">
<svg version="1.1" id="Icons_OUTLINES" xmlns="http://www.w3.org/2000/svg" xmlns:xlink="http://www.w3.org/1999/xlink" x="0px"
	 y="0px" width="32px" height="32px" viewBox="0 0 32 32" enable-background="new 0 0 32 32" xml:space="preserve">
<g>
	<path d="M11.104,13.169c-0.756,0-1.377,0.243-1.864,0.73c-0.486,0.487-0.73,1.11-0.73,1.869c0,0.712,0.207,1.296,0.621,1.748
		c0.413,0.453,0.94,0.68,1.582,0.68c0.791,0,1.346-0.298,1.664-0.892c0.008,0.004,0.015,0.004,0.021,0
		c0,0.906-0.188,1.605-0.563,2.098s-0.902,0.738-1.579,0.738c-0.466,0-0.906-0.121-1.321-0.365v1.08
		c0.397,0.182,0.868,0.273,1.413,0.273c1.031,0,1.836-0.385,2.416-1.154c0.58-0.771,0.871-1.864,0.871-3.282
		c0-1.149-0.224-2.024-0.669-2.624C12.52,13.469,11.899,13.169,11.104,13.169z M11.972,16.824c-0.245,0.248-0.545,0.373-0.899,0.373
		c-0.408,0-0.731-0.137-0.97-0.408s-0.356-0.648-0.356-1.128c0-0.433,0.121-0.792,0.365-1.074c0.243-0.282,0.546-0.425,0.907-0.425
		c0.391,0,0.708,0.164,0.953,0.489s0.368,0.745,0.368,1.257C12.34,16.27,12.217,16.575,11.972,16.824z"/>
	<path d="M16.857,16.268c-0.2,0-0.417,0.008-0.649,0.021v-1.928h2.862v-1.063h-3.958v4.05c0.562-0.043,0.946-0.064,1.154-0.064
		c0.605,0,1.069,0.121,1.394,0.365s0.486,0.584,0.486,1.021c0,0.444-0.159,0.8-0.478,1.066c-0.319,0.267-0.74,0.399-1.263,0.399
		c-0.52,0-1.031-0.17-1.536-0.51v1.197c0.369,0.212,0.93,0.317,1.682,0.317c0.891,0,1.592-0.229,2.103-0.69
		c0.51-0.46,0.765-1.071,0.765-1.834c0-0.727-0.223-1.3-0.668-1.719C18.305,16.478,17.674,16.268,16.857,16.268z"/>
	<path d="M21.885,13.19c-0.416,0-0.769,0.144-1.059,0.43s-0.436,0.638-0.436,1.053c0,0.423,0.147,0.78,0.441,1.074
		c0.293,0.294,0.649,0.44,1.068,0.44c0.415,0,0.77-0.146,1.063-0.44s0.44-0.651,0.44-1.074c0-0.411-0.147-0.762-0.443-1.05
		C22.666,13.334,22.307,13.19,21.885,13.19z M22.44,15.236c-0.156,0.158-0.34,0.236-0.551,0.236c-0.215,0-0.396-0.077-0.545-0.233
		c-0.148-0.155-0.224-0.343-0.224-0.562c0-0.215,0.076-0.396,0.229-0.547s0.336-0.227,0.551-0.227c0.211,0,0.393,0.074,0.545,0.224
		c0.152,0.148,0.229,0.332,0.229,0.55C22.674,14.893,22.596,15.079,22.44,15.236z"/>
	<rect x="11" y="27" width="10" height="2"/>
	<path d="M27.609,9.951c-0.533-0.106-0.868-0.417-1.256-0.805C25.843,8.636,25.207,8,24,8s-1.843,0.636-2.354,1.146
		C21.17,9.623,20.793,10,20,10s-1.17-0.377-1.646-0.854C17.843,8.636,17.207,8,16,8s-1.843,0.636-2.354,1.146
		C13.17,9.623,12.793,10,12,10s-1.17-0.377-1.646-0.854C9.843,8.636,9.207,8,8,8S6.157,8.636,5.646,9.146
		C5.259,9.534,4.924,9.845,4.391,9.951L4,8H1l4,18h22l4-18h-3L27.609,9.951z M25,23H7L4.588,10.938
		c0.836-0.167,1.346-0.665,1.766-1.085C6.83,9.377,7.207,9,8,9s1.17,0.377,1.646,0.854C10.157,10.364,10.793,11,12,11
		s1.843-0.636,2.354-1.146C14.83,9.377,15.207,9,16,9s1.17,0.377,1.646,0.854C18.157,10.364,18.793,11,20,11
		s1.843-0.636,2.354-1.146C22.83,9.377,23.207,9,24,9s1.17,0.377,1.646,0.854c0.42,0.42,0.93,0.918,1.766,1.085L25,23z"/>
</g>
</svg>
