<?xml version="1.0" encoding="utf-8"?>
<!-- Generator: Adobe Illustrator 16.0.4, SVG Export Plug-In . SVG Version: 6.00 Build 0)  -->
<!DOCTYPE svg PUBLIC "-//W3C//DTD SVG 1.1//EN" "http://www.w3.org/Graphics/SVG/1.1/DTD/svg11.dtd">
<svg version="1.1" id="Layer_7" xmlns="http://www.w3.org/2000/svg" xmlns:xlink="http://www.w3.org/1999/xlink" x="0px" y="0px"
	 width="32px" height="32px" viewBox="0 0 32 32" enable-background="new 0 0 32 32" xml:space="preserve">
<path d="M26,26l5-18h-3l-0.391,1.951c-0.533-0.106-0.868-0.416-1.256-0.805C25.843,8.636,25.207,8,24,8
	c-0.947,0-1.541,0.392-2,0.807v1.387c0.126-0.114,0.243-0.23,0.354-0.34C22.83,9.377,23.207,9,24,9s1.17,0.377,1.646,0.854
	c0.42,0.42,0.93,0.918,1.766,1.084L24,23H7L4.396,10.974c0.955-0.122,1.506-0.669,1.957-1.12C6.831,9.377,7.207,9,8,9
	c0.429,0,0.733,0.115,1,0.293V8.178C8.715,8.07,8.39,8,8,8C6.793,8,6.157,8.636,5.646,9.146c-0.417,0.418-0.774,0.742-1.384,0.82
	L4,8H1l4,18H26z"/>
<path d="M14.5,20.526c0.557,0.627,1.443,0.627,2,0C16.778,20.84,17.141,21,17.5,21c0.745,0,1.5-0.688,1.5-2v-3.105
	c0.56,0.242,1.202,0.044,1.588-0.47C20.857,15.065,21,14.572,21,14v-4c0-3.093-0.463-5.038-0.775-6h-1.06
	C19.417,4.679,20,6.615,20,10v4c0,0.35-0.075,0.643-0.213,0.825C19.502,15.211,19,14.92,19,14v-2.5h-1V19c0,1.299-1,1.299-1,0v-6.5
	h-1V19c0,1.299-1,1.299-1,0v-6.5h-1V19c0,1.299-1,1.299-1,0v-9h-1v3c0,1.299-1,1.299-1,0V9c0-1.771,2.534-4.115,3.669-5h-1.543
	C11.88,5.13,10,7.143,10,9v4c0,1.61,1.128,2.275,2,1.895V19C12,20.947,13.645,21.491,14.5,20.526z"/>
</svg>
