<?xml version="1.0" encoding="utf-8"?>
<!-- Generator: Adobe Illustrator 16.0.4, SVG Export Plug-In . SVG Version: 6.00 Build 0)  -->
<!DOCTYPE svg PUBLIC "-//W3C//DTD SVG 1.1//EN" "http://www.w3.org/Graphics/SVG/1.1/DTD/svg11.dtd">
<svg version="1.1" id="Layer_7" xmlns="http://www.w3.org/2000/svg" xmlns:xlink="http://www.w3.org/1999/xlink" x="0px" y="0px"
	 width="32px" height="32px" viewBox="0 0 32 32" enable-background="new 0 0 32 32" xml:space="preserve">
<path d="M27.609,10.098c-0.533-0.106-0.868-0.416-1.256-0.805C25.843,8.782,25.207,8.146,24,8.146s-1.843,0.636-2.354,1.146
	C21.17,9.77,20.793,10.146,20,10.146s-1.17-0.377-1.646-0.854C17.843,8.782,17.207,8.146,16,8.146s-1.843,0.636-2.354,1.146
	C13.17,9.77,12.793,10.146,12,10.146s-1.17-0.377-1.646-0.854C9.843,8.782,9.207,8.146,8,8.146S6.157,8.782,5.646,9.293
	c-0.418,0.418-0.774,0.742-1.385,0.82L4,8.146H1l4,18h21l5-18h-3L27.609,10.098z M24,23.146H7L4.396,11.12
	c0.955-0.122,1.506-0.669,1.957-1.12C6.83,9.523,7.207,9.146,8,9.146S9.17,9.523,9.646,10c0.511,0.511,1.146,1.146,2.354,1.146
	s1.843-0.636,2.354-1.146C14.83,9.523,15.207,9.146,16,9.146S17.17,9.523,17.646,10c0.511,0.511,1.146,1.146,2.354,1.146
	s1.843-0.636,2.354-1.146C22.83,9.523,23.207,9.146,24,9.146S25.17,9.523,25.646,10c0.42,0.42,0.93,0.918,1.766,1.084L24,23.146z"/>
<rect x="11" y="27.146" width="10" height="2"/>
<circle cx="18" cy="20" r="2"/>
<circle cx="13" cy="20" r="2"/>
<circle cx="18" cy="15" r="2"/>
<circle cx="13" cy="15" r="2"/>
</svg>
