<?xml version="1.0" encoding="utf-8"?>
<!-- Generator: Adobe Illustrator 16.0.4, SVG Export Plug-In . SVG Version: 6.00 Build 0)  -->
<!DOCTYPE svg PUBLIC "-//W3C//DTD SVG 1.1//EN" "http://www.w3.org/Graphics/SVG/1.1/DTD/svg11.dtd">
<svg version="1.1" id="Layer_7" xmlns="http://www.w3.org/2000/svg" xmlns:xlink="http://www.w3.org/1999/xlink" x="0px" y="0px"
	 width="32px" height="32px" viewBox="0 0 32 32" enable-background="new 0 0 32 32" xml:space="preserve">
<path d="M27.609,9.954c-0.533-0.106-0.868-0.416-1.256-0.805C25.843,8.639,25.207,8.003,24,8.003s-1.843,0.636-2.354,1.146
	C21.17,9.626,20.793,10.003,20,10.003s-1.17-0.377-1.646-0.854C17.843,8.639,17.207,8.003,16,8.003s-1.843,0.636-2.354,1.146
	C13.17,9.626,12.793,10.003,12,10.003s-1.17-0.377-1.646-0.854C9.843,8.639,9.207,8.003,8,8.003S6.157,8.639,5.646,9.149
	C5.229,9.567,4.872,9.892,4.262,9.97L4,8.003H1l4,18h21l5-18h-3L27.609,9.954z M24,23.003H7L4.396,10.977
	c0.955-0.122,1.506-0.669,1.957-1.12C6.83,9.38,7.207,9.003,8,9.003S9.17,9.38,9.646,9.856c0.511,0.511,1.146,1.146,2.354,1.146
	s1.843-0.636,2.354-1.146C14.83,9.38,15.207,9.003,16,9.003s1.17,0.377,1.646,0.854c0.511,0.511,1.146,1.146,2.354,1.146
	s1.843-0.636,2.354-1.146C22.83,9.38,23.207,9.003,24,9.003s1.17,0.377,1.646,0.854c0.42,0.42,0.93,0.918,1.766,1.084L24,23.003z"/>
<path d="M12.534,13.3h-1.332l-3.34,5.038v0.806h3.502v1.858h1.17v-1.858h0.962v-0.939h-0.962V13.3z M11.364,15.223v2.981H9.006
	l2.095-3.164c0.133-0.236,0.221-0.411,0.264-0.526h0.021C11.371,14.775,11.364,15.012,11.364,15.223z"/>
<path d="M17.102,13.171c-0.884,0-1.561,0.35-2.029,1.048c-0.47,0.698-0.704,1.728-0.704,3.088c0,1.239,0.225,2.187,0.674,2.842
	s1.075,0.982,1.878,0.982c0.859,0,1.527-0.343,2.006-1.028c0.478-0.686,0.717-1.681,0.717-2.983
	C19.643,14.487,18.796,13.171,17.102,13.171z M17.016,20.143c-0.916,0-1.375-0.963-1.375-2.89c0-2.059,0.468-3.088,1.402-3.088
	c0.885,0,1.326,1.013,1.326,3.04C18.369,19.163,17.918,20.143,17.016,20.143z"/>
<path d="M22.2,13.192c-0.416,0-0.769,0.144-1.059,0.43c-0.29,0.287-0.436,0.638-0.436,1.053c0,0.423,0.147,0.781,0.441,1.074
	c0.293,0.294,0.649,0.44,1.068,0.44c0.415,0,0.77-0.146,1.063-0.44c0.294-0.293,0.44-0.651,0.44-1.074
	c0-0.411-0.147-0.762-0.443-1.05C22.981,13.337,22.622,13.192,22.2,13.192z M22.756,15.239c-0.156,0.157-0.34,0.236-0.551,0.236
	c-0.215,0-0.396-0.078-0.545-0.234c-0.148-0.155-0.224-0.343-0.224-0.561c0-0.215,0.076-0.397,0.229-0.548s0.336-0.226,0.551-0.226
	c0.211,0,0.393,0.074,0.545,0.223s0.229,0.332,0.229,0.551C22.989,14.896,22.911,15.081,22.756,15.239z"/>
</svg>
