<?xml version="1.0" encoding="utf-8"?>
<!-- Generator: Adobe Illustrator 16.0.4, SVG Export Plug-In . SVG Version: 6.00 Build 0)  -->
<!DOCTYPE svg PUBLIC "-//W3C//DTD SVG 1.1//EN" "http://www.w3.org/Graphics/SVG/1.1/DTD/svg11.dtd">
<svg version="1.1" id="Layer_7" xmlns="http://www.w3.org/2000/svg" xmlns:xlink="http://www.w3.org/1999/xlink" x="0px" y="0px"
	 width="32px" height="32px" viewBox="0 0 32 32" enable-background="new 0 0 32 32" xml:space="preserve">
<path d="M27.609,9.954c-0.533-0.106-0.868-0.416-1.256-0.805C25.843,8.639,25.207,8.003,24,8.003s-1.843,0.636-2.354,1.146
	C21.17,9.626,20.793,10.003,20,10.003s-1.17-0.377-1.646-0.854C17.843,8.639,17.207,8.003,16,8.003s-1.843,0.636-2.354,1.146
	C13.17,9.626,12.793,10.003,12,10.003s-1.17-0.377-1.646-0.854C9.843,8.639,9.207,8.003,8,8.003S6.157,8.639,5.646,9.149
	C5.229,9.567,4.872,9.892,4.262,9.97L4,8.003H1l4,18h21l5-18h-3L27.609,9.954z M24,23.003H7L4.396,10.977
	c0.955-0.122,1.506-0.669,1.957-1.12C6.83,9.38,7.207,9.003,8,9.003S9.17,9.38,9.646,9.856c0.511,0.511,1.146,1.146,2.354,1.146
	s1.843-0.636,2.354-1.146C14.83,9.38,15.207,9.003,16,9.003s1.17,0.377,1.646,0.854c0.511,0.511,1.146,1.146,2.354,1.146
	s1.843-0.636,2.354-1.146C22.83,9.38,23.207,9.003,24,9.003s1.17,0.377,1.646,0.854c0.42,0.42,0.93,0.918,1.766,1.084L24,23.003z"/>
<circle cx="18" cy="17" r="2"/>
<circle cx="13" cy="17" r="2"/>
</svg>
